<svg xmlns="http://www.w3.org/2000/svg" width="900" height="600" viewBox="0 0 900 600">
<rect width="900" height="600" fill="#002f1e"/>

    <circle cx="80" cy="380" r="2" fill="#334941" opacity="0.5"/><circle cx="80" cy="410" r="2" fill="#334941" opacity="0.5"/><circle cx="80" cy="440" r="2" fill="#334941" opacity="0.5"/><circle cx="80" cy="470" r="2" fill="#334941" opacity="0.5"/><circle cx="80" cy="500" r="2" fill="#334941" opacity="0.5"/><circle cx="80" cy="530" r="2" fill="#334941" opacity="0.5"/><circle cx="110" cy="380" r="2" fill="#334941" opacity="0.5"/><circle cx="110" cy="410" r="2" fill="#334941" opacity="0.5"/><circle cx="110" cy="440" r="2" fill="#334941" opacity="0.5"/><circle cx="110" cy="470" r="2" fill="#334941" opacity="0.5"/><circle cx="110" cy="500" r="2" fill="#334941" opacity="0.5"/><circle cx="110" cy="530" r="2" fill="#334941" opacity="0.5"/><circle cx="140" cy="380" r="2" fill="#334941" opacity="0.5"/><circle cx="140" cy="410" r="2" fill="#334941" opacity="0.5"/><circle cx="140" cy="440" r="2" fill="#334941" opacity="0.5"/><circle cx="140" cy="470" r="2" fill="#334941" opacity="0.5"/><circle cx="140" cy="500" r="2" fill="#334941" opacity="0.5"/><circle cx="140" cy="530" r="2" fill="#334941" opacity="0.5"/><circle cx="170" cy="380" r="2" fill="#334941" opacity="0.5"/><circle cx="170" cy="410" r="2" fill="#334941" opacity="0.5"/><circle cx="170" cy="440" r="2" fill="#334941" opacity="0.5"/><circle cx="170" cy="470" r="2" fill="#334941" opacity="0.5"/><circle cx="170" cy="500" r="2" fill="#334941" opacity="0.5"/><circle cx="170" cy="530" r="2" fill="#334941" opacity="0.5"/><circle cx="200" cy="380" r="2" fill="#334941" opacity="0.5"/><circle cx="200" cy="410" r="2" fill="#334941" opacity="0.5"/><circle cx="200" cy="440" r="2" fill="#334941" opacity="0.5"/><circle cx="200" cy="470" r="2" fill="#334941" opacity="0.5"/><circle cx="200" cy="500" r="2" fill="#334941" opacity="0.5"/><circle cx="200" cy="530" r="2" fill="#334941" opacity="0.5"/><circle cx="230" cy="380" r="2" fill="#334941" opacity="0.5"/><circle cx="230" cy="410" r="2" fill="#334941" opacity="0.5"/><circle cx="230" cy="440" r="2" fill="#334941" opacity="0.5"/><circle cx="230" cy="470" r="2" fill="#334941" opacity="0.5"/><circle cx="230" cy="500" r="2" fill="#334941" opacity="0.5"/><circle cx="230" cy="530" r="2" fill="#334941" opacity="0.5"/><circle cx="260" cy="380" r="2" fill="#334941" opacity="0.5"/><circle cx="260" cy="410" r="2" fill="#334941" opacity="0.5"/><circle cx="260" cy="440" r="2" fill="#334941" opacity="0.5"/><circle cx="260" cy="470" r="2" fill="#334941" opacity="0.5"/><circle cx="260" cy="500" r="2" fill="#334941" opacity="0.5"/><circle cx="260" cy="530" r="2" fill="#334941" opacity="0.5"/><circle cx="290" cy="380" r="2" fill="#334941" opacity="0.5"/><circle cx="290" cy="410" r="2" fill="#334941" opacity="0.5"/><circle cx="290" cy="440" r="2" fill="#334941" opacity="0.5"/><circle cx="290" cy="470" r="2" fill="#334941" opacity="0.5"/><circle cx="290" cy="500" r="2" fill="#334941" opacity="0.5"/><circle cx="290" cy="530" r="2" fill="#334941" opacity="0.5"/><circle cx="320" cy="380" r="2" fill="#334941" opacity="0.5"/><circle cx="320" cy="410" r="2" fill="#334941" opacity="0.5"/><circle cx="320" cy="440" r="2" fill="#334941" opacity="0.5"/><circle cx="320" cy="470" r="2" fill="#334941" opacity="0.5"/><circle cx="320" cy="500" r="2" fill="#334941" opacity="0.5"/><circle cx="320" cy="530" r="2" fill="#334941" opacity="0.5"/>
    <rect x="250" y="140" width="440" height="320" rx="24" stroke="#74b096" stroke-width="2.5" fill="none"/>
    <line x1="250" y1="210" x2="690" y2="210" stroke="#74b096" stroke-width="2.5"/>
    <circle cx="290" cy="175" r="9" fill="#e7a38b"/>
    <circle cx="322" cy="175" r="9" fill="#f8d47a"/>
    <circle cx="354" cy="175" r="9" fill="#74b096"/>
    <rect x="290" y="250" width="180" height="18" rx="9" fill="#e7a38b" opacity="0.9"/>
    <rect x="290" y="292" width="280" height="12" rx="6" fill="#334941"/>
    <rect x="290" y="320" width="240" height="12" rx="6" fill="#334941"/>
    <rect x="290" y="368" width="130" height="44" rx="22" fill="#e7a38b"/>
  
</svg>
