<svg xmlns="http://www.w3.org/2000/svg" width="900" height="600" viewBox="0 0 900 600">
<rect width="900" height="600" fill="#001b12"/>

    <circle cx="90" cy="90" r="2" fill="#334941" opacity="0.5"/><circle cx="90" cy="120" r="2" fill="#334941" opacity="0.5"/><circle cx="90" cy="150" r="2" fill="#334941" opacity="0.5"/><circle cx="90" cy="180" r="2" fill="#334941" opacity="0.5"/><circle cx="90" cy="210" r="2" fill="#334941" opacity="0.5"/><circle cx="120" cy="90" r="2" fill="#334941" opacity="0.5"/><circle cx="120" cy="120" r="2" fill="#334941" opacity="0.5"/><circle cx="120" cy="150" r="2" fill="#334941" opacity="0.5"/><circle cx="120" cy="180" r="2" fill="#334941" opacity="0.5"/><circle cx="120" cy="210" r="2" fill="#334941" opacity="0.5"/><circle cx="150" cy="90" r="2" fill="#334941" opacity="0.5"/><circle cx="150" cy="120" r="2" fill="#334941" opacity="0.5"/><circle cx="150" cy="150" r="2" fill="#334941" opacity="0.5"/><circle cx="150" cy="180" r="2" fill="#334941" opacity="0.5"/><circle cx="150" cy="210" r="2" fill="#334941" opacity="0.5"/><circle cx="180" cy="90" r="2" fill="#334941" opacity="0.5"/><circle cx="180" cy="120" r="2" fill="#334941" opacity="0.5"/><circle cx="180" cy="150" r="2" fill="#334941" opacity="0.5"/><circle cx="180" cy="180" r="2" fill="#334941" opacity="0.5"/><circle cx="180" cy="210" r="2" fill="#334941" opacity="0.5"/><circle cx="210" cy="90" r="2" fill="#334941" opacity="0.5"/><circle cx="210" cy="120" r="2" fill="#334941" opacity="0.5"/><circle cx="210" cy="150" r="2" fill="#334941" opacity="0.5"/><circle cx="210" cy="180" r="2" fill="#334941" opacity="0.5"/><circle cx="210" cy="210" r="2" fill="#334941" opacity="0.5"/><circle cx="240" cy="90" r="2" fill="#334941" opacity="0.5"/><circle cx="240" cy="120" r="2" fill="#334941" opacity="0.5"/><circle cx="240" cy="150" r="2" fill="#334941" opacity="0.5"/><circle cx="240" cy="180" r="2" fill="#334941" opacity="0.5"/><circle cx="240" cy="210" r="2" fill="#334941" opacity="0.5"/><circle cx="270" cy="90" r="2" fill="#334941" opacity="0.5"/><circle cx="270" cy="120" r="2" fill="#334941" opacity="0.5"/><circle cx="270" cy="150" r="2" fill="#334941" opacity="0.5"/><circle cx="270" cy="180" r="2" fill="#334941" opacity="0.5"/><circle cx="270" cy="210" r="2" fill="#334941" opacity="0.5"/>
    <g>
      <rect x="330" y="170" width="86" height="86" rx="18" fill="#e7a38b" opacity="0.95"/><rect x="440" y="170" width="86" height="86" rx="18" fill="#334941" opacity="0.75"/><rect x="550" y="170" width="86" height="86" rx="18" fill="#334941" opacity="0.75"/><rect x="660" y="170" width="86" height="86" rx="18" fill="#e7a38b" opacity="0.95"/><rect x="330" y="280" width="86" height="86" rx="18" fill="#334941" opacity="0.75"/><rect x="440" y="280" width="86" height="86" rx="18" fill="#334941" opacity="0.75"/><rect x="550" y="280" width="86" height="86" rx="18" fill="#e7a38b" opacity="0.95"/><rect x="660" y="280" width="86" height="86" rx="18" fill="#334941" opacity="0.75"/><rect x="330" y="390" width="86" height="86" rx="18" fill="#334941" opacity="0.75"/><rect x="440" y="390" width="86" height="86" rx="18" fill="#e7a38b" opacity="0.95"/><rect x="550" y="390" width="86" height="86" rx="18" fill="#334941" opacity="0.75"/><rect x="660" y="390" width="86" height="86" rx="18" fill="#334941" opacity="0.75"/>
    </g>
    <rect x="140" y="380" width="120" height="140" rx="20" fill="#74b096" opacity="0.8"/>
  
</svg>
