<svg xmlns="http://www.w3.org/2000/svg" width="900" height="600" viewBox="0 0 900 600">
<rect width="900" height="600" fill="#002f1e"/>

    <circle cx="600" cy="100" r="2" fill="#334941" opacity="0.5"/><circle cx="600" cy="130" r="2" fill="#334941" opacity="0.5"/><circle cx="600" cy="160" r="2" fill="#334941" opacity="0.5"/><circle cx="600" cy="190" r="2" fill="#334941" opacity="0.5"/><circle cx="600" cy="220" r="2" fill="#334941" opacity="0.5"/><circle cx="630" cy="100" r="2" fill="#334941" opacity="0.5"/><circle cx="630" cy="130" r="2" fill="#334941" opacity="0.5"/><circle cx="630" cy="160" r="2" fill="#334941" opacity="0.5"/><circle cx="630" cy="190" r="2" fill="#334941" opacity="0.5"/><circle cx="630" cy="220" r="2" fill="#334941" opacity="0.5"/><circle cx="660" cy="100" r="2" fill="#334941" opacity="0.5"/><circle cx="660" cy="130" r="2" fill="#334941" opacity="0.5"/><circle cx="660" cy="160" r="2" fill="#334941" opacity="0.5"/><circle cx="660" cy="190" r="2" fill="#334941" opacity="0.5"/><circle cx="660" cy="220" r="2" fill="#334941" opacity="0.5"/><circle cx="690" cy="100" r="2" fill="#334941" opacity="0.5"/><circle cx="690" cy="130" r="2" fill="#334941" opacity="0.5"/><circle cx="690" cy="160" r="2" fill="#334941" opacity="0.5"/><circle cx="690" cy="190" r="2" fill="#334941" opacity="0.5"/><circle cx="690" cy="220" r="2" fill="#334941" opacity="0.5"/><circle cx="720" cy="100" r="2" fill="#334941" opacity="0.5"/><circle cx="720" cy="130" r="2" fill="#334941" opacity="0.5"/><circle cx="720" cy="160" r="2" fill="#334941" opacity="0.5"/><circle cx="720" cy="190" r="2" fill="#334941" opacity="0.5"/><circle cx="720" cy="220" r="2" fill="#334941" opacity="0.5"/><circle cx="750" cy="100" r="2" fill="#334941" opacity="0.5"/><circle cx="750" cy="130" r="2" fill="#334941" opacity="0.5"/><circle cx="750" cy="160" r="2" fill="#334941" opacity="0.5"/><circle cx="750" cy="190" r="2" fill="#334941" opacity="0.5"/><circle cx="750" cy="220" r="2" fill="#334941" opacity="0.5"/><circle cx="780" cy="100" r="2" fill="#334941" opacity="0.5"/><circle cx="780" cy="130" r="2" fill="#334941" opacity="0.5"/><circle cx="780" cy="160" r="2" fill="#334941" opacity="0.5"/><circle cx="780" cy="190" r="2" fill="#334941" opacity="0.5"/><circle cx="780" cy="220" r="2" fill="#334941" opacity="0.5"/><circle cx="810" cy="100" r="2" fill="#334941" opacity="0.5"/><circle cx="810" cy="130" r="2" fill="#334941" opacity="0.5"/><circle cx="810" cy="160" r="2" fill="#334941" opacity="0.5"/><circle cx="810" cy="190" r="2" fill="#334941" opacity="0.5"/><circle cx="810" cy="220" r="2" fill="#334941" opacity="0.5"/><circle cx="840" cy="100" r="2" fill="#334941" opacity="0.5"/><circle cx="840" cy="130" r="2" fill="#334941" opacity="0.5"/><circle cx="840" cy="160" r="2" fill="#334941" opacity="0.5"/><circle cx="840" cy="190" r="2" fill="#334941" opacity="0.5"/><circle cx="840" cy="220" r="2" fill="#334941" opacity="0.5"/>
    <rect x="180" y="400" width="90" height="120" rx="20" fill="#334941"/>
    <rect x="310" y="330" width="90" height="190" rx="20" fill="#74b096"/>
    <rect x="440" y="250" width="90" height="270" rx="20" fill="#e7a38b"/>
    <circle cx="640" cy="380" r="64" fill="#f8d47a"/>
    <circle cx="640" cy="380" r="64" stroke="#002f1e" stroke-width="3" fill="none"/>
    <circle cx="640" cy="380" r="42" stroke="#002f1e" stroke-width="3" fill="none" opacity="0.6"/>
  
</svg>
