<svg xmlns="http://www.w3.org/2000/svg" width="900" height="600" viewBox="0 0 900 600">
<rect width="900" height="600" fill="#001b12"/>

    <circle cx="80" cy="400" r="2" fill="#334941" opacity="0.5"/><circle cx="80" cy="430" r="2" fill="#334941" opacity="0.5"/><circle cx="80" cy="460" r="2" fill="#334941" opacity="0.5"/><circle cx="80" cy="490" r="2" fill="#334941" opacity="0.5"/><circle cx="80" cy="520" r="2" fill="#334941" opacity="0.5"/><circle cx="110" cy="400" r="2" fill="#334941" opacity="0.5"/><circle cx="110" cy="430" r="2" fill="#334941" opacity="0.5"/><circle cx="110" cy="460" r="2" fill="#334941" opacity="0.5"/><circle cx="110" cy="490" r="2" fill="#334941" opacity="0.5"/><circle cx="110" cy="520" r="2" fill="#334941" opacity="0.5"/><circle cx="140" cy="400" r="2" fill="#334941" opacity="0.5"/><circle cx="140" cy="430" r="2" fill="#334941" opacity="0.5"/><circle cx="140" cy="460" r="2" fill="#334941" opacity="0.5"/><circle cx="140" cy="490" r="2" fill="#334941" opacity="0.5"/><circle cx="140" cy="520" r="2" fill="#334941" opacity="0.5"/><circle cx="170" cy="400" r="2" fill="#334941" opacity="0.5"/><circle cx="170" cy="430" r="2" fill="#334941" opacity="0.5"/><circle cx="170" cy="460" r="2" fill="#334941" opacity="0.5"/><circle cx="170" cy="490" r="2" fill="#334941" opacity="0.5"/><circle cx="170" cy="520" r="2" fill="#334941" opacity="0.5"/><circle cx="200" cy="400" r="2" fill="#334941" opacity="0.5"/><circle cx="200" cy="430" r="2" fill="#334941" opacity="0.5"/><circle cx="200" cy="460" r="2" fill="#334941" opacity="0.5"/><circle cx="200" cy="490" r="2" fill="#334941" opacity="0.5"/><circle cx="200" cy="520" r="2" fill="#334941" opacity="0.5"/><circle cx="230" cy="400" r="2" fill="#334941" opacity="0.5"/><circle cx="230" cy="430" r="2" fill="#334941" opacity="0.5"/><circle cx="230" cy="460" r="2" fill="#334941" opacity="0.5"/><circle cx="230" cy="490" r="2" fill="#334941" opacity="0.5"/><circle cx="230" cy="520" r="2" fill="#334941" opacity="0.5"/><circle cx="260" cy="400" r="2" fill="#334941" opacity="0.5"/><circle cx="260" cy="430" r="2" fill="#334941" opacity="0.5"/><circle cx="260" cy="460" r="2" fill="#334941" opacity="0.5"/><circle cx="260" cy="490" r="2" fill="#334941" opacity="0.5"/><circle cx="260" cy="520" r="2" fill="#334941" opacity="0.5"/><circle cx="290" cy="400" r="2" fill="#334941" opacity="0.5"/><circle cx="290" cy="430" r="2" fill="#334941" opacity="0.5"/><circle cx="290" cy="460" r="2" fill="#334941" opacity="0.5"/><circle cx="290" cy="490" r="2" fill="#334941" opacity="0.5"/><circle cx="290" cy="520" r="2" fill="#334941" opacity="0.5"/>
    <circle cx="380" cy="280" r="140" fill="#e7a38b" opacity="0.92"/>
    <circle cx="540" cy="300" r="110" fill="#74b096" opacity="0.75"/>
    <circle cx="480" cy="180" r="70" fill="#f8d47a" opacity="0.85"/>
    <circle cx="640" cy="200" r="130" stroke="#f5c9b5" stroke-width="2" fill="none" opacity="0.6"/>
  
</svg>
