<svg xmlns="http://www.w3.org/2000/svg" width="900" height="600" viewBox="0 0 900 600">
<rect width="900" height="600" fill="#002f1e"/>

    <circle cx="600" cy="380" r="2" fill="#334941" opacity="0.5"/><circle cx="600" cy="410" r="2" fill="#334941" opacity="0.5"/><circle cx="600" cy="440" r="2" fill="#334941" opacity="0.5"/><circle cx="600" cy="470" r="2" fill="#334941" opacity="0.5"/><circle cx="600" cy="500" r="2" fill="#334941" opacity="0.5"/><circle cx="600" cy="530" r="2" fill="#334941" opacity="0.5"/><circle cx="600" cy="560" r="2" fill="#334941" opacity="0.5"/><circle cx="630" cy="380" r="2" fill="#334941" opacity="0.5"/><circle cx="630" cy="410" r="2" fill="#334941" opacity="0.5"/><circle cx="630" cy="440" r="2" fill="#334941" opacity="0.5"/><circle cx="630" cy="470" r="2" fill="#334941" opacity="0.5"/><circle cx="630" cy="500" r="2" fill="#334941" opacity="0.5"/><circle cx="630" cy="530" r="2" fill="#334941" opacity="0.5"/><circle cx="630" cy="560" r="2" fill="#334941" opacity="0.5"/><circle cx="660" cy="380" r="2" fill="#334941" opacity="0.5"/><circle cx="660" cy="410" r="2" fill="#334941" opacity="0.5"/><circle cx="660" cy="440" r="2" fill="#334941" opacity="0.5"/><circle cx="660" cy="470" r="2" fill="#334941" opacity="0.5"/><circle cx="660" cy="500" r="2" fill="#334941" opacity="0.5"/><circle cx="660" cy="530" r="2" fill="#334941" opacity="0.5"/><circle cx="660" cy="560" r="2" fill="#334941" opacity="0.5"/><circle cx="690" cy="380" r="2" fill="#334941" opacity="0.5"/><circle cx="690" cy="410" r="2" fill="#334941" opacity="0.5"/><circle cx="690" cy="440" r="2" fill="#334941" opacity="0.5"/><circle cx="690" cy="470" r="2" fill="#334941" opacity="0.5"/><circle cx="690" cy="500" r="2" fill="#334941" opacity="0.5"/><circle cx="690" cy="530" r="2" fill="#334941" opacity="0.5"/><circle cx="690" cy="560" r="2" fill="#334941" opacity="0.5"/><circle cx="720" cy="380" r="2" fill="#334941" opacity="0.5"/><circle cx="720" cy="410" r="2" fill="#334941" opacity="0.5"/><circle cx="720" cy="440" r="2" fill="#334941" opacity="0.5"/><circle cx="720" cy="470" r="2" fill="#334941" opacity="0.5"/><circle cx="720" cy="500" r="2" fill="#334941" opacity="0.5"/><circle cx="720" cy="530" r="2" fill="#334941" opacity="0.5"/><circle cx="720" cy="560" r="2" fill="#334941" opacity="0.5"/><circle cx="750" cy="380" r="2" fill="#334941" opacity="0.5"/><circle cx="750" cy="410" r="2" fill="#334941" opacity="0.5"/><circle cx="750" cy="440" r="2" fill="#334941" opacity="0.5"/><circle cx="750" cy="470" r="2" fill="#334941" opacity="0.5"/><circle cx="750" cy="500" r="2" fill="#334941" opacity="0.5"/><circle cx="750" cy="530" r="2" fill="#334941" opacity="0.5"/><circle cx="750" cy="560" r="2" fill="#334941" opacity="0.5"/><circle cx="780" cy="380" r="2" fill="#334941" opacity="0.5"/><circle cx="780" cy="410" r="2" fill="#334941" opacity="0.5"/><circle cx="780" cy="440" r="2" fill="#334941" opacity="0.5"/><circle cx="780" cy="470" r="2" fill="#334941" opacity="0.5"/><circle cx="780" cy="500" r="2" fill="#334941" opacity="0.5"/><circle cx="780" cy="530" r="2" fill="#334941" opacity="0.5"/><circle cx="780" cy="560" r="2" fill="#334941" opacity="0.5"/><circle cx="810" cy="380" r="2" fill="#334941" opacity="0.5"/><circle cx="810" cy="410" r="2" fill="#334941" opacity="0.5"/><circle cx="810" cy="440" r="2" fill="#334941" opacity="0.5"/><circle cx="810" cy="470" r="2" fill="#334941" opacity="0.5"/><circle cx="810" cy="500" r="2" fill="#334941" opacity="0.5"/><circle cx="810" cy="530" r="2" fill="#334941" opacity="0.5"/><circle cx="810" cy="560" r="2" fill="#334941" opacity="0.5"/><circle cx="840" cy="380" r="2" fill="#334941" opacity="0.5"/><circle cx="840" cy="410" r="2" fill="#334941" opacity="0.5"/><circle cx="840" cy="440" r="2" fill="#334941" opacity="0.5"/><circle cx="840" cy="470" r="2" fill="#334941" opacity="0.5"/><circle cx="840" cy="500" r="2" fill="#334941" opacity="0.5"/><circle cx="840" cy="530" r="2" fill="#334941" opacity="0.5"/><circle cx="840" cy="560" r="2" fill="#334941" opacity="0.5"/>
    <rect x="140" y="120" width="360" height="360" rx="36" stroke="#74b096" stroke-width="2" fill="none" opacity="0.7"/>
    <rect x="205" y="185" width="230" height="230" rx="26" stroke="#e7a38b" stroke-width="2.5" fill="none"/>
    <rect x="268" y="248" width="104" height="104" rx="18" fill="#e7a38b"/>
    <path d="M 620 120 L 760 120 L 760 260" stroke="#f8d47a" stroke-width="5" fill="none" opacity="0.85"/>
  
</svg>
