<svg xmlns="http://www.w3.org/2000/svg" width="900" height="600" viewBox="0 0 900 600">
<rect width="900" height="600" fill="#002f1e"/>

    <circle cx="620" cy="90" r="2" fill="#334941" opacity="0.5"/><circle cx="620" cy="120" r="2" fill="#334941" opacity="0.5"/><circle cx="620" cy="150" r="2" fill="#334941" opacity="0.5"/><circle cx="620" cy="180" r="2" fill="#334941" opacity="0.5"/><circle cx="620" cy="210" r="2" fill="#334941" opacity="0.5"/><circle cx="620" cy="240" r="2" fill="#334941" opacity="0.5"/><circle cx="650" cy="90" r="2" fill="#334941" opacity="0.5"/><circle cx="650" cy="120" r="2" fill="#334941" opacity="0.5"/><circle cx="650" cy="150" r="2" fill="#334941" opacity="0.5"/><circle cx="650" cy="180" r="2" fill="#334941" opacity="0.5"/><circle cx="650" cy="210" r="2" fill="#334941" opacity="0.5"/><circle cx="650" cy="240" r="2" fill="#334941" opacity="0.5"/><circle cx="680" cy="90" r="2" fill="#334941" opacity="0.5"/><circle cx="680" cy="120" r="2" fill="#334941" opacity="0.5"/><circle cx="680" cy="150" r="2" fill="#334941" opacity="0.5"/><circle cx="680" cy="180" r="2" fill="#334941" opacity="0.5"/><circle cx="680" cy="210" r="2" fill="#334941" opacity="0.5"/><circle cx="680" cy="240" r="2" fill="#334941" opacity="0.5"/><circle cx="710" cy="90" r="2" fill="#334941" opacity="0.5"/><circle cx="710" cy="120" r="2" fill="#334941" opacity="0.5"/><circle cx="710" cy="150" r="2" fill="#334941" opacity="0.5"/><circle cx="710" cy="180" r="2" fill="#334941" opacity="0.5"/><circle cx="710" cy="210" r="2" fill="#334941" opacity="0.5"/><circle cx="710" cy="240" r="2" fill="#334941" opacity="0.5"/><circle cx="740" cy="90" r="2" fill="#334941" opacity="0.5"/><circle cx="740" cy="120" r="2" fill="#334941" opacity="0.5"/><circle cx="740" cy="150" r="2" fill="#334941" opacity="0.5"/><circle cx="740" cy="180" r="2" fill="#334941" opacity="0.5"/><circle cx="740" cy="210" r="2" fill="#334941" opacity="0.5"/><circle cx="740" cy="240" r="2" fill="#334941" opacity="0.5"/><circle cx="770" cy="90" r="2" fill="#334941" opacity="0.5"/><circle cx="770" cy="120" r="2" fill="#334941" opacity="0.5"/><circle cx="770" cy="150" r="2" fill="#334941" opacity="0.5"/><circle cx="770" cy="180" r="2" fill="#334941" opacity="0.5"/><circle cx="770" cy="210" r="2" fill="#334941" opacity="0.5"/><circle cx="770" cy="240" r="2" fill="#334941" opacity="0.5"/><circle cx="800" cy="90" r="2" fill="#334941" opacity="0.5"/><circle cx="800" cy="120" r="2" fill="#334941" opacity="0.5"/><circle cx="800" cy="150" r="2" fill="#334941" opacity="0.5"/><circle cx="800" cy="180" r="2" fill="#334941" opacity="0.5"/><circle cx="800" cy="210" r="2" fill="#334941" opacity="0.5"/><circle cx="800" cy="240" r="2" fill="#334941" opacity="0.5"/><circle cx="830" cy="90" r="2" fill="#334941" opacity="0.5"/><circle cx="830" cy="120" r="2" fill="#334941" opacity="0.5"/><circle cx="830" cy="150" r="2" fill="#334941" opacity="0.5"/><circle cx="830" cy="180" r="2" fill="#334941" opacity="0.5"/><circle cx="830" cy="210" r="2" fill="#334941" opacity="0.5"/><circle cx="830" cy="240" r="2" fill="#334941" opacity="0.5"/>
    <rect x="360" y="160" width="120" height="320" rx="60" fill="#e7a38b"/>
    <rect x="260" y="260" width="320" height="120" rx="60" fill="#74b096" opacity="0.85"/>
    <circle cx="420" cy="320" r="200" stroke="#f5c9b5" stroke-width="2" fill="none" opacity="0.45"/>
    <circle cx="170" cy="150" r="8" fill="#f8d47a"/>
  
</svg>
