<svg xmlns="http://www.w3.org/2000/svg" width="900" height="600" viewBox="0 0 900 600">
<rect width="900" height="600" fill="#001b12"/>

    <circle cx="60" cy="60" r="2" fill="#334941" opacity="0.5"/><circle cx="60" cy="90" r="2" fill="#334941" opacity="0.5"/><circle cx="60" cy="120" r="2" fill="#334941" opacity="0.5"/><circle cx="60" cy="150" r="2" fill="#334941" opacity="0.5"/><circle cx="60" cy="180" r="2" fill="#334941" opacity="0.5"/><circle cx="60" cy="210" r="2" fill="#334941" opacity="0.5"/><circle cx="90" cy="60" r="2" fill="#334941" opacity="0.5"/><circle cx="90" cy="90" r="2" fill="#334941" opacity="0.5"/><circle cx="90" cy="120" r="2" fill="#334941" opacity="0.5"/><circle cx="90" cy="150" r="2" fill="#334941" opacity="0.5"/><circle cx="90" cy="180" r="2" fill="#334941" opacity="0.5"/><circle cx="90" cy="210" r="2" fill="#334941" opacity="0.5"/><circle cx="120" cy="60" r="2" fill="#334941" opacity="0.5"/><circle cx="120" cy="90" r="2" fill="#334941" opacity="0.5"/><circle cx="120" cy="120" r="2" fill="#334941" opacity="0.5"/><circle cx="120" cy="150" r="2" fill="#334941" opacity="0.5"/><circle cx="120" cy="180" r="2" fill="#334941" opacity="0.5"/><circle cx="120" cy="210" r="2" fill="#334941" opacity="0.5"/><circle cx="150" cy="60" r="2" fill="#334941" opacity="0.5"/><circle cx="150" cy="90" r="2" fill="#334941" opacity="0.5"/><circle cx="150" cy="120" r="2" fill="#334941" opacity="0.5"/><circle cx="150" cy="150" r="2" fill="#334941" opacity="0.5"/><circle cx="150" cy="180" r="2" fill="#334941" opacity="0.5"/><circle cx="150" cy="210" r="2" fill="#334941" opacity="0.5"/><circle cx="180" cy="60" r="2" fill="#334941" opacity="0.5"/><circle cx="180" cy="90" r="2" fill="#334941" opacity="0.5"/><circle cx="180" cy="120" r="2" fill="#334941" opacity="0.5"/><circle cx="180" cy="150" r="2" fill="#334941" opacity="0.5"/><circle cx="180" cy="180" r="2" fill="#334941" opacity="0.5"/><circle cx="180" cy="210" r="2" fill="#334941" opacity="0.5"/><circle cx="210" cy="60" r="2" fill="#334941" opacity="0.5"/><circle cx="210" cy="90" r="2" fill="#334941" opacity="0.5"/><circle cx="210" cy="120" r="2" fill="#334941" opacity="0.5"/><circle cx="210" cy="150" r="2" fill="#334941" opacity="0.5"/><circle cx="210" cy="180" r="2" fill="#334941" opacity="0.5"/><circle cx="210" cy="210" r="2" fill="#334941" opacity="0.5"/><circle cx="240" cy="60" r="2" fill="#334941" opacity="0.5"/><circle cx="240" cy="90" r="2" fill="#334941" opacity="0.5"/><circle cx="240" cy="120" r="2" fill="#334941" opacity="0.5"/><circle cx="240" cy="150" r="2" fill="#334941" opacity="0.5"/><circle cx="240" cy="180" r="2" fill="#334941" opacity="0.5"/><circle cx="240" cy="210" r="2" fill="#334941" opacity="0.5"/><circle cx="270" cy="60" r="2" fill="#334941" opacity="0.5"/><circle cx="270" cy="90" r="2" fill="#334941" opacity="0.5"/><circle cx="270" cy="120" r="2" fill="#334941" opacity="0.5"/><circle cx="270" cy="150" r="2" fill="#334941" opacity="0.5"/><circle cx="270" cy="180" r="2" fill="#334941" opacity="0.5"/><circle cx="270" cy="210" r="2" fill="#334941" opacity="0.5"/><circle cx="300" cy="60" r="2" fill="#334941" opacity="0.5"/><circle cx="300" cy="90" r="2" fill="#334941" opacity="0.5"/><circle cx="300" cy="120" r="2" fill="#334941" opacity="0.5"/><circle cx="300" cy="150" r="2" fill="#334941" opacity="0.5"/><circle cx="300" cy="180" r="2" fill="#334941" opacity="0.5"/><circle cx="300" cy="210" r="2" fill="#334941" opacity="0.5"/>
    <path d="M -80 470 Q 300 260 520 380 T 1000 300" stroke="#334941" stroke-width="56" fill="none" opacity="0.55"/>
    <path d="M -80 470 Q 300 260 520 380 T 1000 300" stroke="#e7a38b" stroke-width="6" fill="none" stroke-dasharray="26 20"/>
    <circle cx="520" cy="380" r="38" fill="#e7a38b"/>
    <circle cx="520" cy="380" r="70" stroke="#e7a38b" stroke-width="2" fill="none" opacity="0.5"/>
    <circle cx="790" cy="140" r="90" stroke="#74b096" stroke-width="2" fill="none" opacity="0.6"/>
  
</svg>
