<svg xmlns="http://www.w3.org/2000/svg" width="900" height="600" viewBox="0 0 900 600">
<rect width="900" height="600" fill="#001b12"/>

    <circle cx="70" cy="80" r="2" fill="#334941" opacity="0.5"/><circle cx="70" cy="110" r="2" fill="#334941" opacity="0.5"/><circle cx="70" cy="140" r="2" fill="#334941" opacity="0.5"/><circle cx="70" cy="170" r="2" fill="#334941" opacity="0.5"/><circle cx="70" cy="200" r="2" fill="#334941" opacity="0.5"/><circle cx="100" cy="80" r="2" fill="#334941" opacity="0.5"/><circle cx="100" cy="110" r="2" fill="#334941" opacity="0.5"/><circle cx="100" cy="140" r="2" fill="#334941" opacity="0.5"/><circle cx="100" cy="170" r="2" fill="#334941" opacity="0.5"/><circle cx="100" cy="200" r="2" fill="#334941" opacity="0.5"/><circle cx="130" cy="80" r="2" fill="#334941" opacity="0.5"/><circle cx="130" cy="110" r="2" fill="#334941" opacity="0.5"/><circle cx="130" cy="140" r="2" fill="#334941" opacity="0.5"/><circle cx="130" cy="170" r="2" fill="#334941" opacity="0.5"/><circle cx="130" cy="200" r="2" fill="#334941" opacity="0.5"/><circle cx="160" cy="80" r="2" fill="#334941" opacity="0.5"/><circle cx="160" cy="110" r="2" fill="#334941" opacity="0.5"/><circle cx="160" cy="140" r="2" fill="#334941" opacity="0.5"/><circle cx="160" cy="170" r="2" fill="#334941" opacity="0.5"/><circle cx="160" cy="200" r="2" fill="#334941" opacity="0.5"/><circle cx="190" cy="80" r="2" fill="#334941" opacity="0.5"/><circle cx="190" cy="110" r="2" fill="#334941" opacity="0.5"/><circle cx="190" cy="140" r="2" fill="#334941" opacity="0.5"/><circle cx="190" cy="170" r="2" fill="#334941" opacity="0.5"/><circle cx="190" cy="200" r="2" fill="#334941" opacity="0.5"/><circle cx="220" cy="80" r="2" fill="#334941" opacity="0.5"/><circle cx="220" cy="110" r="2" fill="#334941" opacity="0.5"/><circle cx="220" cy="140" r="2" fill="#334941" opacity="0.5"/><circle cx="220" cy="170" r="2" fill="#334941" opacity="0.5"/><circle cx="220" cy="200" r="2" fill="#334941" opacity="0.5"/><circle cx="250" cy="80" r="2" fill="#334941" opacity="0.5"/><circle cx="250" cy="110" r="2" fill="#334941" opacity="0.5"/><circle cx="250" cy="140" r="2" fill="#334941" opacity="0.5"/><circle cx="250" cy="170" r="2" fill="#334941" opacity="0.5"/><circle cx="250" cy="200" r="2" fill="#334941" opacity="0.5"/>
    <path d="M 200 520 A 260 260 0 0 1 720 520" stroke="#334941" stroke-width="46" fill="none" opacity="0.6"/>
    <path d="M 280 520 A 180 180 0 0 1 640 520" stroke="#74b096" stroke-width="36" fill="none" opacity="0.8"/>
    <path d="M 360 520 A 100 100 0 0 1 560 520" stroke="#e7a38b" stroke-width="28" fill="none"/>
    <circle cx="460" cy="240" r="52" fill="#f8d47a" opacity="0.95"/>
  
</svg>
