<svg xmlns="http://www.w3.org/2000/svg" width="900" height="600" viewBox="0 0 900 600">
<rect width="900" height="600" fill="#002f1e"/>

    <circle cx="140" cy="150" r="16" fill="#334941" opacity="0.9"/><circle cx="140" cy="238" r="16" fill="#334941" opacity="0.9"/><circle cx="140" cy="326" r="16" fill="#334941" opacity="0.9"/><circle cx="140" cy="414" r="16" fill="#334941" opacity="0.9"/><circle cx="228" cy="150" r="16" fill="#334941" opacity="0.9"/><circle cx="228" cy="238" r="16" fill="#334941" opacity="0.9"/><circle cx="228" cy="326" r="16" fill="#334941" opacity="0.9"/><circle cx="228" cy="414" r="16" fill="#334941" opacity="0.9"/><circle cx="316" cy="150" r="16" fill="#334941" opacity="0.9"/><circle cx="316" cy="238" r="16" fill="#334941" opacity="0.9"/><circle cx="316" cy="326" r="16" fill="#334941" opacity="0.9"/><circle cx="316" cy="414" r="16" fill="#334941" opacity="0.9"/><circle cx="404" cy="150" r="16" fill="#334941" opacity="0.9"/><circle cx="404" cy="238" r="16" fill="#334941" opacity="0.9"/><circle cx="404" cy="326" r="16" fill="#334941" opacity="0.9"/><circle cx="404" cy="414" r="16" fill="#334941" opacity="0.9"/><circle cx="492" cy="150" r="16" fill="#334941" opacity="0.9"/><circle cx="492" cy="238" r="16" fill="#334941" opacity="0.9"/><circle cx="492" cy="326" r="16" fill="#334941" opacity="0.9"/><circle cx="492" cy="414" r="16" fill="#334941" opacity="0.9"/><circle cx="580" cy="150" r="16" fill="#334941" opacity="0.9"/><circle cx="580" cy="238" r="16" fill="#334941" opacity="0.9"/><circle cx="580" cy="326" r="16" fill="#334941" opacity="0.9"/><circle cx="580" cy="414" r="16" fill="#334941" opacity="0.9"/><circle cx="668" cy="150" r="16" fill="#334941" opacity="0.9"/><circle cx="668" cy="238" r="16" fill="#334941" opacity="0.9"/><circle cx="668" cy="326" r="16" fill="#334941" opacity="0.9"/><circle cx="668" cy="414" r="16" fill="#334941" opacity="0.9"/><circle cx="756" cy="150" r="16" fill="#334941" opacity="0.9"/><circle cx="756" cy="238" r="16" fill="#334941" opacity="0.9"/><circle cx="756" cy="326" r="16" fill="#334941" opacity="0.9"/><circle cx="756" cy="414" r="16" fill="#334941" opacity="0.9"/>
    <circle cx="492" cy="326" r="52" fill="#e7a38b"/>
    <circle cx="492" cy="326" r="78" stroke="#f5c9b5" stroke-width="2" fill="none" opacity="0.6"/>
    <circle cx="756" cy="150" r="16" fill="#f8d47a"/>
  
</svg>
