<svg xmlns="http://www.w3.org/2000/svg" width="900" height="600" viewBox="0 0 900 600">
<rect width="900" height="600" fill="#001b12"/>

    <circle cx="620" cy="400" r="2" fill="#334941" opacity="0.5"/><circle cx="620" cy="430" r="2" fill="#334941" opacity="0.5"/><circle cx="620" cy="460" r="2" fill="#334941" opacity="0.5"/><circle cx="620" cy="490" r="2" fill="#334941" opacity="0.5"/><circle cx="620" cy="520" r="2" fill="#334941" opacity="0.5"/><circle cx="650" cy="400" r="2" fill="#334941" opacity="0.5"/><circle cx="650" cy="430" r="2" fill="#334941" opacity="0.5"/><circle cx="650" cy="460" r="2" fill="#334941" opacity="0.5"/><circle cx="650" cy="490" r="2" fill="#334941" opacity="0.5"/><circle cx="650" cy="520" r="2" fill="#334941" opacity="0.5"/><circle cx="680" cy="400" r="2" fill="#334941" opacity="0.5"/><circle cx="680" cy="430" r="2" fill="#334941" opacity="0.5"/><circle cx="680" cy="460" r="2" fill="#334941" opacity="0.5"/><circle cx="680" cy="490" r="2" fill="#334941" opacity="0.5"/><circle cx="680" cy="520" r="2" fill="#334941" opacity="0.5"/><circle cx="710" cy="400" r="2" fill="#334941" opacity="0.5"/><circle cx="710" cy="430" r="2" fill="#334941" opacity="0.5"/><circle cx="710" cy="460" r="2" fill="#334941" opacity="0.5"/><circle cx="710" cy="490" r="2" fill="#334941" opacity="0.5"/><circle cx="710" cy="520" r="2" fill="#334941" opacity="0.5"/><circle cx="740" cy="400" r="2" fill="#334941" opacity="0.5"/><circle cx="740" cy="430" r="2" fill="#334941" opacity="0.5"/><circle cx="740" cy="460" r="2" fill="#334941" opacity="0.5"/><circle cx="740" cy="490" r="2" fill="#334941" opacity="0.5"/><circle cx="740" cy="520" r="2" fill="#334941" opacity="0.5"/><circle cx="770" cy="400" r="2" fill="#334941" opacity="0.5"/><circle cx="770" cy="430" r="2" fill="#334941" opacity="0.5"/><circle cx="770" cy="460" r="2" fill="#334941" opacity="0.5"/><circle cx="770" cy="490" r="2" fill="#334941" opacity="0.5"/><circle cx="770" cy="520" r="2" fill="#334941" opacity="0.5"/><circle cx="800" cy="400" r="2" fill="#334941" opacity="0.5"/><circle cx="800" cy="430" r="2" fill="#334941" opacity="0.5"/><circle cx="800" cy="460" r="2" fill="#334941" opacity="0.5"/><circle cx="800" cy="490" r="2" fill="#334941" opacity="0.5"/><circle cx="800" cy="520" r="2" fill="#334941" opacity="0.5"/><circle cx="830" cy="400" r="2" fill="#334941" opacity="0.5"/><circle cx="830" cy="430" r="2" fill="#334941" opacity="0.5"/><circle cx="830" cy="460" r="2" fill="#334941" opacity="0.5"/><circle cx="830" cy="490" r="2" fill="#334941" opacity="0.5"/><circle cx="830" cy="520" r="2" fill="#334941" opacity="0.5"/>
    <path d="M 100 340 L 260 340 L 340 220 L 430 430 L 520 300 L 640 300" stroke="#e7a38b" stroke-width="7" fill="none" stroke-linejoin="round" stroke-linecap="round"/>
    <path d="M 100 430 L 800 430" stroke="#74b096" stroke-width="3" stroke-dasharray="4 14" opacity="0.9"/>
    <circle cx="640" cy="300" r="26" fill="#f8d47a"/>
    <circle cx="640" cy="300" r="48" stroke="#f8d47a" stroke-width="2" fill="none" opacity="0.5"/>
  
</svg>
